<?xml version="1.0" encoding="UTF-8"?>
<!DOCTYPE svg PUBLIC "-//W3C//DTD SVG 1.1//EN" "http://www.w3.org/Graphics/SVG/1.1/DTD/svg11.dtd">
<!-- Creator: CorelDRAW 2021 (64-Bit) -->
<svg xmlns="http://www.w3.org/2000/svg" xml:space="preserve" width="29px" height="55px" version="1.1" style="shape-rendering:geometricPrecision; text-rendering:geometricPrecision; image-rendering:optimizeQuality; fill-rule:evenodd; clip-rule:evenodd"
viewBox="0 0 29 55.1"
 xmlns:xlink="http://www.w3.org/1999/xlink"
 xmlns:xodm="http://www.corel.com/coreldraw/odm/2003">
 <defs>
  <style type="text/css">
   <![CDATA[
    .str3 {stroke:#3BAA33;stroke-width:0.49;stroke-miterlimit:2.61313}
    .str2 {stroke:#3BAA33;stroke-width:0.22;stroke-miterlimit:2.61313}
    .str0 {stroke:#3BAA33;stroke-width:2.46;stroke-linecap:round;stroke-miterlimit:2.61313}
    .str1 {stroke:#3BAA33;stroke-width:1.47;stroke-linecap:round;stroke-miterlimit:2.61313}
    .str4 {stroke:#3BAA33;stroke-width:1.47;stroke-linecap:round;stroke-linejoin:round;stroke-miterlimit:2.61313}
    .fil0 {fill:none}
    .fil1 {fill:#3BAA33}
   ]]>
  </style>
 </defs>
 <g id="Layer_x0020_1">
  <metadata id="CorelCorpID_0Corel-Layer"/>
  <g id="_3006060313136">
   <path class="fil0 str0" d="M1.97 14.34c0.26,2 0.6,3.98 0.93,5.97 0.06,0.39 0.12,0.79 0.19,1.18 0.15,0.98 0.27,1.95 0.38,2.94 0.49,4.95 0.28,9.73 -0.93,14.56"/>
   <path class="fil0 str0" d="M6.29 9.94c-2.79,0.06 -4.4,1.03 -4.34,4.03 0.01,0.12 0.01,0.24 0.02,0.37"/>
   <path class="fil0 str0" d="M25.62 9.12c-7.61,1.59 -9.68,1.65 -17.41,0.92 -0.64,-0.05 -1.27,-0.07 -1.92,-0.1"/>
   <path class="fil0 str0" d="M25.57 21.22c-1.23,9.56 -0.54,14.78 0.64,18.52"/>
   <path class="fil0 str1" d="M14.38 32.55c0.01,-4.64 -0.03,-8.74 -0.04,-13.39m0 0c2.4,-0.03 3.97,-0.21 6.32,-0.61"/>
   <path class="fil1 str1" d="M18.85 20.32c-0.67,2.34 -3.49,-0.62 -1,-0.89 0.59,-0.06 1.04,0.27 1,0.89z"/>
   <path class="fil1 str2" d="M7.3 30.17c0.75,-0.01 1.48,-0.05 2.23,-0.02 0.2,0 0.37,0.01 0.57,0.01 0.16,-0.01 0.46,-0.02 0.44,0.22 -0.01,0.12 -0.23,0.17 -0.33,0.2 -0.22,0.08 -0.36,0.11 -0.59,0.15 -0.28,0.06 -0.56,0.13 -0.83,0.19 -0.27,0.06 -0.52,0.14 -0.8,0.2 -3.67,1.55 -3.43,4.47 -4.27,7.76 -0.35,1.41 -0.92,3.02 -0.22,4.43 0.36,0.73 1.47,1.38 2.26,1.55 1.43,0.19 2.37,0.15 3.78,0.13 0.2,0 0.39,0 0.59,0 0.31,0 0.6,0.02 0.58,0.41 -0.04,0.59 -1.32,0.78 -1.76,0.86 -0.9,0.15 -1.9,0.23 -2.81,0.25 -0.3,0.01 -0.6,0 -0.9,-0.01 -0.63,-0.03 -1.31,-0.08 -1.91,-0.24 -0.9,-0.26 -1.33,-0.53 -1.96,-1.2 -0.47,-0.54 -0.59,-1.11 -0.67,-1.8 -0.07,-1.36 0.14,-2.73 0.53,-4.04 0.42,-1.4 0.69,-2.4 0.88,-3.87 0.11,-0.88 0.26,-1.7 0.34,-2.6 0.03,-0.38 0.07,-0.75 0.1,-1.13 0.02,-0.31 0.02,-0.61 0.04,-0.91 0.03,-0.67 0.37,-0.51 0.96,-0.53 0.82,-0.02 1.7,0.01 2.53,0 0.41,-0.01 0.81,-0.01 1.22,-0.01z"/>
   <path class="fil1" d="M15.07 49.84c-0.22,1.56 0.06,2.28 -1.09,3.6 -0.21,0.23 -0.36,0.36 -0.63,0.51 -0.08,-0.08 0.31,-0.69 0.38,-0.85 0.65,-1.57 0.4,-2.85 -0.45,-4.27 -0.88,-1.24 -1.7,-2.72 -1.4,-4.3 0.2,-1.04 0.91,-1.91 1.99,-2.05l0.15 -0.02c2.39,-0.05 3.13,2.22 2.38,4.19 -0.49,1.28 -1.01,1.65 -1.33,3.18l0 0.01z"/>
   <path class="fil1 str3" d="M13.96 8.19c-0.74,0.05 -1.82,0.19 -2.33,0.78 -0.23,0.25 -0.39,0.47 -0.41,0.83 -0.03,0.27 0.15,0.39 0.39,0.46l0.03 0.01c0.14,0.03 0.18,0.04 0.31,0.12 0.26,0.17 0.57,0.28 0.88,0.29 0.43,0.03 0.87,0 1.3,0 0.65,0.03 1.35,0.14 1.96,-0.15 0.2,-0.09 0.38,-0.1 0.56,-0.18 0.24,-0.11 0.2,-0.28 0.16,-0.51 -0.04,-0.18 -0.1,-0.36 -0.21,-0.51 -0.23,-0.34 -0.39,-0.51 -0.77,-0.71 -0.41,-0.22 -0.91,-0.36 -1.38,-0.41 -0.16,-0.01 -0.33,-0.02 -0.49,-0.02z"/>
   <path class="fil1" d="M18.83 2.98c0.37,1.41 -1.17,1.64 -0.87,2.59 0.29,0.77 0.56,0.59 0.44,1.57 -0.15,1.15 -0.01,1.19 0.34,0.12 0.2,-0.62 0.08,-0.93 -0.2,-1.5 -0.23,-0.5 -0.04,-0.65 0.3,-1.02 0.45,-0.47 0.8,-0.82 0.8,-1.51 0,-0.09 -0.01,-0.16 -0.02,-0.24 -0.04,-0.22 -0.15,-0.44 -0.25,-0.64 -0.1,-0.18 -0.19,-0.3 -0.34,-0.45 -1.09,-0.98 -2.21,-1.13 -3.6,-0.85 -1.84,0.58 -3.04,1.7 -3.72,3.51 -0.25,0.68 -0.25,1.27 -0.02,1.95 0.23,0.63 0.69,1.12 1.18,1.55 0.1,0.08 0.18,0.14 0.28,0.21 0.21,0.14 0.39,0.22 0.63,0.31 0.59,0.2 0.99,-0.25 1.38,-0.62 0.69,-0.7 1.18,-1.25 0.89,-2.26 -0.25,-1 -0.56,-2.44 0.26,-3.26 0.3,-0.3 0.74,-0.42 1.16,-0.41 0.21,0.02 0.36,0.09 0.54,0.17 0.16,0.09 0.29,0.18 0.43,0.29 0.16,0.15 0.28,0.3 0.39,0.49z"/>
   <path class="fil1 str2" d="M21.2 30.17c-0.75,-0.01 -1.48,-0.05 -2.23,-0.02 -0.2,0 -0.37,0.01 -0.56,0.01 -0.17,-0.01 -0.47,-0.02 -0.45,0.22 0.01,0.12 0.23,0.17 0.33,0.2 0.22,0.08 0.36,0.11 0.59,0.15 0.28,0.06 0.56,0.13 0.84,0.19 0.27,0.06 0.51,0.14 0.79,0.2 3.67,1.55 3.43,4.47 4.27,7.76 0.35,1.41 0.92,3.02 0.22,4.43 -0.36,0.73 -1.47,1.38 -2.26,1.55 -1.43,0.19 -2.37,0.15 -3.78,0.13 -0.2,0 -0.39,0 -0.59,0 -0.31,0 -0.6,0.02 -0.57,0.41 0.03,0.59 1.31,0.78 1.75,0.86 0.9,0.15 1.9,0.23 2.81,0.25 0.3,0.01 0.6,0 0.9,-0.01 0.63,-0.03 1.31,-0.08 1.91,-0.24 0.9,-0.26 1.33,-0.53 1.96,-1.2 0.47,-0.54 0.59,-1.11 0.67,-1.8 0.07,-1.36 -0.14,-2.73 -0.53,-4.04 -0.42,-1.4 -0.69,-2.4 -0.88,-3.87 -0.11,-0.88 -0.26,-1.7 -0.34,-2.6 -0.03,-0.38 -0.07,-0.75 -0.1,-1.13 -0.02,-0.31 -0.02,-0.61 -0.04,-0.91 -0.03,-0.67 -0.37,-0.51 -0.96,-0.53 -0.82,-0.02 -1.7,0.01 -2.53,0 -0.41,-0.01 -0.81,-0.01 -1.22,-0.01z"/>
   <path class="fil0 str4" d="M9.08 33.15l10.6 0c0,0.05 0,-0.04 0,0 0,2.75 -2.37,4.97 -5.3,4.97 -2.92,0 -5.3,-2.22 -5.3,-4.97 0,-0.05 0,0.05 0,0z"/>
  </g>
 </g>
</svg>
