<svg xmlns="http://www.w3.org/2000/svg" viewBox="0 0 225.21 66.67"  width="auto" height="34" style="max-width: 100%; position: absolute; top: 0; left: 50%; transform: translateX(-50%); z-index: -1;"><defs><style>.cls-1,.cls-2{fill-rule:evenodd;}.cls-15,.cls-2,.cls-3{fill:#fff;}.cls-3{font-size:14.69px;font-family:ArialMT, Arial;}.cls-4{letter-spacing:0.07em;}.cls-5{letter-spacing:0.1em;}.cls-6{letter-spacing:0.09em;}.cls-7{letter-spacing:0.1em;}.cls-8{letter-spacing:0em;}.cls-9{letter-spacing:0em;}.cls-10{letter-spacing:0.1em;}.cls-11{letter-spacing:0.1em;}.cls-12{letter-spacing:0em;}.cls-13{letter-spacing:0em;}.cls-14{letter-spacing:0.1em;}.cls-15{font-size:33.43px;font-family:Calibri;letter-spacing:0em;}.cls-16{letter-spacing:0em;}.cls-17{letter-spacing:0em;}.cls-18{letter-spacing:0em;}.cls-19{letter-spacing:-0.02em;}.cls-20{letter-spacing:0em;}.cls-21{letter-spacing:-0.02em;}.cls-22{letter-spacing:0em;}</style></defs><title>Asset 43</title><g id="Layer_2" data-name="Layer 2"><g id="Layer_1-2" data-name="Layer 1"><path class="cls-1" d="M7.17,0H218a7.2,7.2,0,0,1,7.17,7.17V59.5A7.2,7.2,0,0,1,218,66.67H7.17A7.2,7.2,0,0,1,0,59.5V7.17A7.2,7.2,0,0,1,7.17,0Z"/><path class="cls-2" d="M50.68,32.57c0-4.05,1.79-6.69,4.82-9a10.53,10.53,0,0,0-12.24-3.8A19,19,0,0,1,38.49,21c-1.55.05-3.68-.94-4.73-1-6.29-1.65-8.9.85-9.92,1.7C20.75,24.26,19.79,28,19.45,31c-.57,7,2.58,17.3,8.53,21.69a5.53,5.53,0,0,0,4.62,1c1.78-.45,3.63-1.47,5.44-1.64s4.31.62,6,1.27a7.79,7.79,0,0,0,3.17.4c4.45-1,7.8-8,9.53-12-4.11-1.19-6.15-6.21-6.1-9.1Z"/><path class="cls-2" d="M40.34,11.68a11.56,11.56,0,0,1,6.32-3.43c.45,1.61-.06,4.65-2,7.28-2.41,3.07-4.54,3.49-6.78,3.6a12.09,12.09,0,0,1,2.5-7.45Z"/><text class="cls-3" transform="translate(70.03 23.23)"><tspan class="cls-4">D</tspan><tspan class="cls-5" x="11.64" y="0">o</tspan><tspan class="cls-4" x="21.26" y="0">w</tspan><tspan class="cls-5" x="32.9" y="0">n</tspan><tspan class="cls-6" x="42.52" y="0">l</tspan><tspan class="cls-7" x="47.08" y="0">oa</tspan><tspan class="cls-8" x="66.33" y="0">d</tspan><tspan class="cls-9" x="74.44" y="0"> </tspan><tspan class="cls-10" x="78.51" y="0"> </tspan><tspan class="cls-11" x="84.07" y="0">o</tspan><tspan class="cls-12" x="93.7" y="0">n</tspan><tspan class="cls-13" x="101.81" y="0"> </tspan><tspan class="cls-10" x="105.87" y="0" xml:space="preserve"> t</tspan><tspan class="cls-14" x="117" y="0">h</tspan><tspan x="126.63" y="0">e</tspan></text><text class="cls-15" transform="translate(70.53 53.12)">A<tspan class="cls-16" x="19.28" y="0">pp</tspan><tspan class="cls-17" x="54.68" y="0"> </tspan><tspan class="cls-18" x="62.27" y="0">S</tspan><tspan class="cls-19" x="77.5" y="0">t</tspan><tspan class="cls-20" x="88.16" y="0">o</tspan><tspan class="cls-21" x="105.86" y="0">r</tspan><tspan class="cls-22" x="117.01" y="0">e</tspan></text></g></g></svg>