<svg xmlns="http://www.w3.org/2000/svg" xmlns:xlink="http://www.w3.org/1999/xlink" viewBox="0 0 938.31 277.74" width="auto" height="34" style="max-width: 100%; position: absolute; top: 0; left: 50%; transform: translateX(-50%); z-index: -1;"><defs><style>.cls-1{isolation:isolate;font-size:62.44px;font-family:MyriadPro-Regular, Myriad Pro;}.cls-1,.cls-3{fill:#fff;}.cls-2{letter-spacing:0.02em;}.cls-4,.cls-5,.cls-6,.cls-7{fill-rule:evenodd;}.cls-4{fill:url(#linear-gradient);}.cls-5{fill-opacity:0.79;fill:url(#linear-gradient-2);}.cls-6{fill-opacity:0.56;fill:url(#linear-gradient-3);}.cls-7{fill-opacity:0.47;fill:url(#linear-gradient-4);}</style><linearGradient id="linear-gradient" x1="49.04" y1="-517.94" x2="149.41" y2="-408.83" gradientTransform="matrix(1, 0, 0, -1, 0.19, -305.47)" gradientUnits="userSpaceOnUse"><stop offset="0" stop-color="#63ffd4"/><stop offset="0.27" stop-color="#63ffd4"/><stop offset="0.99" stop-color="#368bb8"/><stop offset="1" stop-color="#368bb8"/></linearGradient><linearGradient id="linear-gradient-2" x1="63.79" y1="-489.11" x2="199.08" y2="-489.11" gradientTransform="matrix(1, 0, 0, -1, 0.19, -305.47)" gradientUnits="userSpaceOnUse"><stop offset="0" stop-color="#940070"/><stop offset="0.04" stop-color="#940070"/><stop offset="0.59" stop-color="#ff002a"/><stop offset="1" stop-color="#ff002a"/></linearGradient><linearGradient id="linear-gradient-3" x1="218.16" y1="-523.03" x2="187.61" y2="-488.12" gradientTransform="matrix(1, 0, 0, -1, 0.19, -305.47)" gradientUnits="userSpaceOnUse"><stop offset="0" stop-color="#ffffa8"/><stop offset="1" stop-color="#f9ff6d"/></linearGradient><linearGradient id="linear-gradient-4" x1="186.16" y1="-479.57" x2="151.25" y2="-444.66" gradientTransform="matrix(1, 0, 0, -1, 0.19, -305.47)" gradientUnits="userSpaceOnUse"><stop offset="0" stop-color="#ffff78"/><stop offset="0.14" stop-color="#fff97a"/><stop offset="0.31" stop-color="#ffe97f"/><stop offset="0.51" stop-color="#ffce88"/><stop offset="0.73" stop-color="#ffa993"/><stop offset="0.95" stop-color="#ff7aa3"/><stop offset="1" stop-color="#ff6fa6"/></linearGradient></defs><title>Asset 1</title><g id="Layer_2" data-name="Layer 2"><g id="Layer_1-2" data-name="Layer 1"><rect width="938.31" height="277.74" rx="29.91"/><text class="cls-1" transform="translate(233.96 78.87)">G<tspan class="cls-2" x="40.34" y="0">E</tspan><tspan x="72.05" y="0">T IT ON</tspan></text><g id="_2312920502592" data-name=" 2312920502592"><path class="cls-3" d="M270.21,157.84H324q-.88,20.31-13.19,32.89c-8.19,8.39-18.6,12.6-31.15,12.6a43.13,43.13,0,0,1-18.06-3.76,44.42,44.42,0,0,1-14.84-11.12,42.13,42.13,0,0,1-8.41-14,48.31,48.31,0,0,1-2.87-16.75A43.9,43.9,0,0,1,239,140.48a45.17,45.17,0,0,1,10.16-14.7,41.71,41.71,0,0,1,14.14-9.43,46.42,46.42,0,0,1,17.37-3.13q13.2,0,23.13,6.16a38.55,38.55,0,0,1,15,17.5H303.29A28.05,28.05,0,0,0,293,128.57a31.51,31.51,0,0,0-13.36-2.79,30.2,30.2,0,0,0-11.71,2.32,29.58,29.58,0,0,0-9.88,6.73,32.89,32.89,0,0,0-7,10.65,31.94,31.94,0,0,0-2.52,12.38,35.92,35.92,0,0,0,2.28,12.83,30,30,0,0,0,6.5,10.44,32.33,32.33,0,0,0,10.34,7.2,29.53,29.53,0,0,0,11.94,2.56,30,30,0,0,0,17.52-5.26q7.59-5.28,12.5-15.59H270.21v-12.2Zm70.63,11a22.91,22.91,0,0,0,6.22,16.38,20.51,20.51,0,0,0,15.51,6.54,20.06,20.06,0,0,0,15.28-6.58A23.15,23.15,0,0,0,384,168.7q0-9.94-6.16-16.44a21.4,21.4,0,0,0-30.79.11,23,23,0,0,0-6.21,16.45Zm-12.18.12a35.5,35.5,0,0,1,2.36-13A33,33,0,0,1,338,145.09a34.82,34.82,0,0,1,11.13-8.15,30.17,30.17,0,0,1,12.84-2.87,33.1,33.1,0,0,1,24.29,10.13,35.28,35.28,0,0,1,7.41,11.11,32.76,32.76,0,0,1,2.59,12.8,36.82,36.82,0,0,1-2.42,13.08,35,35,0,0,1-18,19.43,31.54,31.54,0,0,1-13.25,2.83,33.38,33.38,0,0,1-13.27-2.58,32.82,32.82,0,0,1-10.89-7.66A35.6,35.6,0,0,1,331.24,182a34.38,34.38,0,0,1-2.58-13.05Zm83.74-.12a22.87,22.87,0,0,0,6.22,16.38,20.49,20.49,0,0,0,15.5,6.54,20.1,20.1,0,0,0,15.29-6.58,23.2,23.2,0,0,0,6.16-16.46q0-9.94-6.16-16.44a21.4,21.4,0,0,0-30.79.11,23,23,0,0,0-6.22,16.45Zm-12.19.12a35.71,35.71,0,0,1,2.36-13,33.17,33.17,0,0,1,6.92-10.84,34.86,34.86,0,0,1,11.14-8.15,30.17,30.17,0,0,1,12.84-2.87,33.06,33.06,0,0,1,24.29,10.13,35.28,35.28,0,0,1,7.41,11.11,32.74,32.74,0,0,1,2.58,12.8,36.81,36.81,0,0,1-2.41,13.08,34,34,0,0,1-6.74,11.12,34.57,34.57,0,0,1-11.22,8.31,31.58,31.58,0,0,1-13.26,2.83,33.45,33.45,0,0,1-13.27-2.58A32.82,32.82,0,0,1,410,193.21,35.43,35.43,0,0,1,402.79,182a34.57,34.57,0,0,1-2.58-13.05Zm76.3,37.92h12.56a18.69,18.69,0,0,0,7.18,7,21,21,0,0,0,10.14,2.39c6.63,0,12-2,16-6s6-9.27,6-15.85v-.84a31.36,31.36,0,0,1-10.07,7.1,29.59,29.59,0,0,1-11.87,2.39q-14.75,0-24.51-9.85t-9.75-24.68a35.29,35.29,0,0,1,2.44-13.1,33,33,0,0,1,6.95-10.89,32.37,32.37,0,0,1,10.81-7.64,34,34,0,0,1,13.35-2.48,30.81,30.81,0,0,1,22.77,9.61v-7.9H540.4v54.64q0,17.1-8.88,26.77t-24.4,9.66q-11.25,0-19.22-5.33a28.9,28.9,0,0,1-11.39-15Zm7.93-38.41A22.94,22.94,0,0,0,491,185.14a21.62,21.62,0,0,0,16.09,6.73,20.86,20.86,0,0,0,15.33-6.77,21.79,21.79,0,0,0,6.63-15.79,23,23,0,0,0-6.57-16.54,21,21,0,0,0-15.61-6.87,22.4,22.4,0,0,0-22.44,22.55Zm67.29,33.17V114.93h11.7v86.69Zm143.11-46.45h9.1c6.46,0,11.15-1.14,14.08-3.39s4.37-5.84,4.37-10.76-1.49-8.57-4.43-11-7.49-3.56-13.59-3.56h-9.53v28.66Zm0,46.45H682.4V114.93h20.12a75.88,75.88,0,0,1,12.94.83,23.58,23.58,0,0,1,7.76,2.81,22.84,22.84,0,0,1,8.64,9,26.15,26.15,0,0,1,3.21,12.72q0,12.08-8.15,19.26t-22.08,7.18h-10v34.87Zm47.3,0V114.93h11.71v86.69Zm82.36-65.47h12.68l17.66,48.74L874,136.15h12.68l-35.24,86.68H839l9.13-23L824.5,136.15ZM808,193.69a40.1,40.1,0,0,1-11.51,7.18A33,33,0,0,1,784.62,203c-7,0-12.29-1.68-16-5.08a16.67,16.67,0,0,1-5.61-13,17.4,17.4,0,0,1,2.11-8.48,17.8,17.8,0,0,1,5.55-6.14,26.38,26.38,0,0,1,7.72-3.51,81.12,81.12,0,0,1,9.55-1.61c8.66-1,15.06-2.26,19.14-3.68,0-1.46.06-2.4.06-2.78q0-6.51-3-9.2-4.12-3.63-12.24-3.62c-5.06,0-8.8.9-11.2,2.67s-4.18,4.89-5.34,9.4l-10.48-1.46a25.94,25.94,0,0,1,4.72-10.89,20.72,20.72,0,0,1,9.5-6.38A42.35,42.35,0,0,1,793.42,137a38.15,38.15,0,0,1,13.21,1.91,17.5,17.5,0,0,1,7.46,4.8,17.22,17.22,0,0,1,3.35,7.31,62.54,62.54,0,0,1,.53,9.85V175.1c0,9.94.22,16.22.67,18.88a24.48,24.48,0,0,0,2.62,7.64H810a23.64,23.64,0,0,1-2.07-7.93Zm-.86-23.77q-5.85,2.37-17.56,4a40.56,40.56,0,0,0-9.38,2.13,9.4,9.4,0,0,0-4.23,3.46,9.36,9.36,0,0,0,1.75,12.17c2.17,1.89,5.34,2.85,9.51,2.85a22.28,22.28,0,0,0,11-2.7,16.69,16.69,0,0,0,7.1-7.36q1.73-3.63,1.72-10.67l.06-3.9Z"/><path class="cls-3" d="M622.54,155.6c-3.28-4.51-7.14-7.52-11.57-9a19.8,19.8,0,0,0-13.69.46,20.79,20.79,0,0,0-10.92,9,23.15,23.15,0,0,0-2.91,14.37l39.09-14.85Zm-35.66,24.9a22.21,22.21,0,0,0,11.65,9.81,20.88,20.88,0,0,0,15-.23c3.63-1.38,6.17-3.94,8.94-6.4l10.85,5.23c.5.24-6.2,8.4-15.62,12.11a32,32,0,0,1-26.24-1,35.74,35.74,0,0,1-10.68-7.92,34.44,34.44,0,0,1-7-11.3,35.19,35.19,0,0,1-2.38-12.9,34.27,34.27,0,0,1,2.59-12.7,33.35,33.35,0,0,1,35.4-20.66,32.58,32.58,0,0,1,22.85,13.78,48.94,48.94,0,0,1,5.59,10.86l.65,1.73L586.88,180.5Z"/></g><g id="_2312920499136" data-name=" 2312920499136"><path class="cls-4" d="M198.5,163.64,68.34,232.58a6,6,0,0,1-8.73-5.24V89.42a5.93,5.93,0,0,1,8.73-5.23l130.16,69a6,6,0,0,1,0,10.47Z"/><path class="cls-5" d="M198.5,153.17l-36.44-19.33L64,233.06a5.7,5.7,0,0,0,1.59.22,5.88,5.88,0,0,0,2.78-.7L198.5,163.64a5.93,5.93,0,0,0,0-10.47Z"/><path class="cls-6" d="M198.59,163.56l-36.44,19.33L64.24,83.63a5.46,5.46,0,0,1,1.61-.24,5.64,5.64,0,0,1,2.75.72l130,69.12a5.93,5.93,0,0,1,0,10.33Z"/><path class="cls-7" d="M162,133.73,137.7,158.28,162,183l36.44-19.29a5.94,5.94,0,0,0,3.19-5.27,6,6,0,0,0-.23-1.63,5.66,5.66,0,0,0-3-3.7Z"/></g></g></g></svg>