<?xml version="1.0" encoding="UTF-8"?>
<!DOCTYPE svg PUBLIC "-//W3C//DTD SVG 1.1//EN" "http://www.w3.org/Graphics/SVG/1.1/DTD/svg11.dtd">
<!-- Creator: CorelDRAW 2019 (64-Bit) -->
<svg xmlns="http://www.w3.org/2000/svg" xml:space="preserve" width="1.66666in" height="1.66666in" version="1.1" style="shape-rendering:geometricPrecision; text-rendering:geometricPrecision; image-rendering:optimizeQuality; fill-rule:evenodd; clip-rule:evenodd"
viewBox="0 0 1666.66 1666.66"
 xmlns:xlink="http://www.w3.org/1999/xlink">
 <defs>
  <style type="text/css">
   <![CDATA[
    .str1 {stroke:#2B2A29;stroke-width:1.39;stroke-miterlimit:2.61313}
    .str0 {stroke:#2C2134;stroke-width:6.94;stroke-miterlimit:2.61313}
    .fil0 {fill:#2C2134}
    .fil1 {fill:#4AD540}
   ]]>
  </style>
 </defs>
 <g id="Layer_x0020_1">
  <metadata id="CorelCorpID_0Corel-Layer"/>
  <rect class="fil0 str0" x="21.42" y="-2.83" width="1633" height="1633" rx="354.66" ry="341.57"/>
  <path class="fil1 str1" d="M1037.59 1202.78l-0 -333.69 31 -0.04c92.2,16.98 156.4,88.85 173.89,159.35 2.22,8.94 2.95,10.89 5.4,21.91 0,35.44 28.73,64.17 64.17,64.17 35.44,0 64.17,-28.73 64.17,-64.17l0 -487.82c0,-35.44 -28.73,-64.17 -64.17,-64.17 -35.44,0 -64.17,28.73 -64.17,64.17 -2.45,11.02 -3.19,12.97 -5.4,21.91 -17.48,70.5 -81.69,142.37 -173.89,159.39l-31 0 0 -333.69c0,-37.22 -30.17,-67.39 -67.39,-67.39 -37.21,0 -67.38,30.17 -67.38,67.39l0 333.85 -218.1 -0.17 0 -333.69c0,-37.22 -30.17,-67.39 -67.39,-67.39 -37.21,0 -67.38,30.17 -67.38,67.39l0 333.85 -106.5 -0.13c-100.21,-100.22 -148.52,-100.22 -144.94,0.04l-0.04 125.22c-3.61,100.26 44.7,100.26 144.94,0l106.54 -0.17 0 333.85c0,37.22 30.17,67.39 67.38,67.39 37.22,0 67.39,-30.17 67.39,-67.39l-0 -333.69 218.1 -0.33 0 334.02c0,37.22 30.17,67.39 67.38,67.39 37.22,0 67.39,-30.17 67.39,-67.39z"/>
 </g>
</svg>
