<?xml version="1.0" encoding="UTF-8"?>
<!DOCTYPE svg PUBLIC "-//W3C//DTD SVG 1.1//EN" "http://www.w3.org/Graphics/SVG/1.1/DTD/svg11.dtd">
<!-- Creator: CorelDRAW 2019 (64-Bit) -->
<svg xmlns="http://www.w3.org/2000/svg" xml:space="preserve" width="1.66666in" height="1.66666in" version="1.1" style="shape-rendering:geometricPrecision; text-rendering:geometricPrecision; image-rendering:optimizeQuality; fill-rule:evenodd; clip-rule:evenodd"
viewBox="0 0 1666.66 1666.66"
 xmlns:xlink="http://www.w3.org/1999/xlink">
 <defs>
  <style type="text/css">
   <![CDATA[
    .str0 {stroke:#4AD540;stroke-width:1.39;stroke-miterlimit:2.61313}
    .fil0 {fill:#4AD540}
   ]]>
  </style>
 </defs>
 <g id="Layer_x0020_1">
  <metadata id="CorelCorpID_0Corel-Layer"/>
  <path class="fil0 str0" d="M1022.18 836.44c16.34,-11.75 23.88,-31.35 22.61,-53.14l0 -94.79c-6.98,-37.72 -29.88,-61.88 -67.26,-70.98l-130.51 -0.07 0 189.81 -52.38 0.21 -0.03 -104c-4.93,-53.77 -34.55,-83.52 -88.97,-85.94l-16.98 -0.06c-54.41,2.43 -84.04,32.17 -88.89,89.23l0 100.03 -48.59 0.2 0 -153.02c0,-17.13 -13.88,-31.01 -31.01,-31.01 -17.13,0 -31.01,13.88 -31.01,31.01l0 153.26 -74.18 0.3 -0.28 -153.56c0,-17.13 -13.89,-31.01 -31.02,-31.01 -17.12,0 -31.01,13.88 -31.01,31.01l-0.14 153.64 -55.56 -0.06c-46.11,-46.12 -68.35,-46.12 -66.7,0.02l-0.02 57.63c-1.66,46.14 20.57,46.14 66.7,0l55.76 -0.06 -0.05 153.63c0,17.13 13.89,31.01 31.01,31.01 17.13,0 31.02,-13.88 31.02,-31.01l0.28 -153.57 74.18 0.17 0 153.4c0,17.13 13.89,31.01 31.01,31.01 17.13,0 31.01,-13.88 31.01,-31.01l-0 -153.68 48.59 -0.04 0 90.58c4.84,57.06 34.47,86.8 88.89,89.23l16.98 -0.05c54.42,-2.43 84.04,-32.17 88.97,-85.94l0.03 -93.66 52.39 -0.04 0 153.61c0,17.13 13.89,31.01 31.01,31.01 17.13,0 31.01,-13.88 31.01,-31.01l-0 -125.5 0 -28.16 52.89 -0.04c12.38,2.6 19.32,10.08 20.83,22.44l0 131.26c0,17.13 13.89,31.01 31.01,31.01 17.13,0 31.02,-13.88 31.02,-31.01l-0 -129.13c1.27,-21.79 -6.27,-41.4 -22.61,-53.15zm267.77 182.28l-0 -153.57 12.62 -0.02c42.43,7.81 71.97,40.89 80.02,73.33 1.02,4.11 1.36,5.01 2.49,10.08 0,16.31 13.22,29.53 29.53,29.53 16.31,0 29.53,-13.22 29.53,-29.53l0 -224.5c0,-16.31 -13.22,-29.53 -29.53,-29.53 -16.31,0 -29.53,13.22 -29.53,29.53 -1.13,5.07 -1.47,5.97 -2.49,10.09 -8.05,32.44 -37.59,65.52 -80.02,73.35l-12.62 0 0 -58.59 -0.17 -59.66c-7.15,-38.44 -30.04,-62.6 -68.84,-71.71l-59.97 -0.02c-38.31,9.13 -61.21,33.29 -68.08,71.87l0.12 329.35c0,17.13 13.89,31.01 31.01,31.01 17.13,0 31.01,-13.88 31.01,-31.01l0.2 -320.8c1.62,-13.23 9.46,-20.87 23.34,-22.89l25.56 -0.02c14.02,2.04 21.85,9.68 23.63,22.94l0.17 320.77c0,17.13 13.89,31.01 31.01,31.01 17.13,0 31.01,-13.88 31.01,-31.01zm-327.94 -211.91l-52.96 0.21 0 -131.95 50.2 -0.08c14.07,2.06 21.91,9.69 23.52,22.01l0 87.37c-1.5,12.34 -8.43,19.81 -20.76,22.43zm-275.08 180.43l22.44 0.03c16.63,-4.01 24.34,-17.23 23.22,-34.87l0.04 -121.24 -0.04 -121.24c1.12,-17.65 -6.59,-30.86 -23.22,-34.88l-22.44 0.04c-19.03,2.96 -27.89,16.41 -26.6,37.12l0 6 0 94.94 0 136.73c-1.29,20.98 7.57,34.42 26.6,37.39z"/>
 </g>
</svg>
